<svg id="button-play" viewBox="0 0 76 76" xmlns="http://www.w3.org/2000/svg">
<circle cx="38" cy="38" r="38" fill="#263238" fill-opacity="0.5"/>
<path fill-rule="evenodd" clip-rule="evenodd" d="M72 38C72 56.7777 56.7777 72 38 72C19.2223 72 4 56.7777 4 38C4 19.2223 19.2223 4 38 4C56.7777 4 72 19.2223 72 38ZM76 38C76 58.9868 58.9868 76 38 76C17.0132 76 0 58.9868 0 38C0 17.0132 17.0132 0 38 0C58.9868 0 76 17.0132 76 38ZM49 39L28 50V26L49 37C49 37 50 37.5 50 38C50 38.5 49 39 49 39Z" style="fill:#fff;" />
</svg>
