<svg id="icon-community" viewBox="0 0 37 23" xmlns="http://www.w3.org/2000/svg">
<path fill-rule="evenodd" clip-rule="evenodd" d="M5 23L12 18.5002H14.5C14.5 18.5002 14 17.4998 14 15C14 12.5002 15.5 8.50034 17 7C18.5 5.49966 20 4.5 20 4.5V1.5C20 0 19 0 19 0C19 0 3.5 1.5 2.5 1.5C1.5 1.5 0 2 0 4C0 5.17157 0.514719 9.08831 0.941126 12.333C1.24264 14.6274 1.5 16.5858 1.5 17C1.5 18 2 19 3 19H5V23ZM15.5 14.5002C15 17.5 18 18.0002 20 16.5002C20.7639 15.9273 21.3819 15.4273 21.9098 15.0002L21.9098 15.0002L21.9099 15.0001C22.764 14.3091 23.382 13.8091 24 13.5002C25.0001 13.0004 28.0001 13.5004 29 14.5002C29.6324 15.1324 29.8649 15.565 30.3297 16.4297L30.3297 16.4298L30.3298 16.4299C30.5999 16.9325 30.9487 17.5813 31.5 18.5002C33 20.9999 35.5 19.9999 36 18.5002C36.5001 17.0005 36.5 15.4999 36 12.0002C35.5001 8.50045 33.0001 8.00041 30.5 9.00019C28 9.99997 24.5 9.00019 23.5 8.00019C22.5001 7.00019 19.5 6.00041 18 8.00019C16.5 9.99997 16 11.5004 15.5 14.5002ZM6.5 5L7.57692 15L13.5 9.11765L6.5 5ZM31.5 11C31.5 11.5523 31.0523 12 30.5 12C29.9477 12 29.5 11.5523 29.5 11C29.5 10.4477 29.9477 10 30.5 10C31.0523 10 31.5 10.4477 31.5 11ZM33.5 12C34.0523 12 34.5 11.5523 34.5 11C34.5 10.4477 34.0523 10 33.5 10C32.9477 10 32.5 10.4477 32.5 11C32.5 11.5523 32.9477 12 33.5 12ZM33.5 14C33.5 14.5523 33.0523 15 32.5 15C31.9477 15 31.5 14.5523 31.5 14C31.5 13.4477 31.9477 13 32.5 13C33.0523 13 33.5 13.4477 33.5 14ZM19.9836 9.22474L20.2424 8.25882L21.2083 8.51764L20.9495 9.48356L21.9154 9.74238L21.6566 10.7083L20.6907 10.4495L20.4319 11.4154L19.466 11.1566L19.7248 10.1907L18.7589 9.93185L19.0177 8.96593L19.9836 9.22474Z" style="fill:#fff;" />
</svg>
