<?xml version="1.0" encoding="utf-8"?>
<svg viewBox="234.953 212.546 22 17" xmlns="http://www.w3.org/2000/svg">
  <path fill-rule="evenodd" clip-rule="evenodd" d="M14 0H22V8H20V3.21178L11.7091 9.31053L10.524 7.69946L18.2721 2H14V0ZM11 5H3C2.44772 5 2 5.44772 2 6V14C2 14.5523 2.44772 15 3 15H16C16.5523 15 17 14.5523 17 14V8H19V14C19 15.6569 17.6569 17 16 17H3C1.34315 17 0 15.6569 0 14V6C0 4.34315 1.34315 3 3 3H11V5Z" transform="matrix(1, 0, 0, 1, 234.952682, 212.546082)" style="fill: #cfd8dc;" />
</svg>