<svg id="icon-pegi" viewBox="0 0 40 40" xmlns="http://www.w3.org/2000/svg">
<path d="M39.2682 18.2218C39.7561 18.2218 40 17.9429 40 17.4206V12.4036C40.0074 11.7837 39.891 11.1686 39.6576 10.5942C39.4243 10.0199 39.0787 9.49786 38.6411 9.05873L30.7323 1.04507C30.3368 0.676914 29.8699 0.394124 29.3604 0.214322C28.8509 0.0345207 28.3099 -0.0384398 27.771 -1.35722e-05H12.2311C11.6922 -0.0384166 11.1512 0.0345548 10.6417 0.214355C10.1323 0.394155 9.66528 0.676933 9.26986 1.04507L1.36099 9.05873C0.916846 9.493 0.56696 10.0141 0.333156 10.5896C0.0993531 11.1651 -0.0133517 11.7826 0.00207313 12.4036V27.7684C-0.0284395 28.3539 0.0713837 28.9388 0.29434 29.481C0.517296 30.0232 0.857827 30.5091 1.29136 30.9038L9.06109 38.6735C9.46772 39.1033 9.95989 39.4432 10.5059 39.6713C11.0519 39.8993 11.6396 40.0104 12.2311 39.9974H27.771C28.3626 40.0103 28.9503 39.8992 29.4963 39.6711C30.0423 39.4431 30.5345 39.1033 30.9413 38.6735L38.7105 30.9038C39.1403 30.5062 39.4783 30.0198 39.701 29.4783C39.9237 28.9368 40.0258 28.3533 40 27.7684V22.4725C40.0046 22.3768 39.9885 22.2812 39.9529 22.1923C39.9172 22.1033 39.8628 22.0231 39.7934 21.957C39.724 21.8909 39.6411 21.8406 39.5505 21.8094C39.4599 21.7781 39.3636 21.7668 39.2682 21.7761H36.934V23.4134C36.934 24.6326 36.7595 25.2597 35.7144 25.2597H34.6692C33.6241 25.2597 33.4496 24.6326 33.4496 23.4134V21.7761H31.8123C30.5931 21.7761 29.9655 21.6015 29.9655 20.5564V19.4415C29.9655 18.3959 30.5931 18.2218 31.8123 18.2218H33.4495V16.584C33.4495 15.3653 33.6241 14.7377 34.6692 14.7377H35.7143C36.7595 14.7377 36.934 15.3653 36.934 16.584V18.2218H39.2682ZM13.4625 29.0575C13.4625 30.2767 13.2532 30.9038 12.2426 30.9038H11.0582C10.0478 30.9038 9.83854 30.2767 9.83854 29.0575V14.0059C9.83854 13.3095 9.62973 13.0651 9.17675 13.0651H8.44496C7.22598 13.0651 6.59843 12.8565 6.59843 11.8459V10.6964C6.59843 9.68623 7.22598 9.47677 8.44496 9.47677H11.6157C12.8349 9.47677 13.4625 9.68623 13.4625 10.6964V29.0575ZM20.209 27.1745H26.3759C27.6649 27.1745 28.3269 27.3835 28.3269 28.4635V29.5091C28.3269 30.6585 27.6649 30.8675 26.3759 30.8675H17.909C16.6199 30.8675 15.9577 30.6236 15.9577 29.0906V27.0004C15.9577 23.7253 16.4112 21.4605 19.3729 20.2064C21.951 19.1264 24.7381 19.0216 24.7381 15.2243C24.7381 12.75 23.8675 12.5759 22.0902 12.5759C20.3831 12.5759 19.7211 12.75 19.7211 14.492C19.7211 15.1894 19.2332 15.3286 18.432 15.3286H17.5957C16.6199 15.3286 16.2368 15.0846 16.2368 14.1438C16.2368 9.92841 18.0135 8.98755 22.0902 8.98755C27.9433 8.98755 28.3963 11.2519 28.3963 16.0255C28.3963 23.8301 19.5815 21.4955 19.5815 25.2234V26.3733C19.5815 26.9305 19.7211 27.1745 20.209 27.1745Z" style="fill: #cfd8dc;" />
</svg>
