<svg id="icon-cup" viewBox="0 0 20 20" xmlns="http://www.w3.org/2000/svg">
<path fill-rule="evenodd" clip-rule="evenodd" d="M5 0H15V2H20V4C20 9.18535 16.0533 13.4489 11 13.9506V17.0415C13.8377 17.2795 16 18.5135 16 20H11H9H4C4 18.5135 6.16228 17.2795 9 17.0415V13.9506C3.94668 13.4489 0 9.18535 0 4V2H5V0ZM2 4C2 6.53092 3.17529 8.78734 5.00986 10.2533C5.00332 10.1695 5 10.0851 5 10V4H2ZM14.9901 10.2533C16.8247 8.78734 18 6.53092 18 4H15V10C15 10.0851 14.9967 10.1695 14.9901 10.2533Z" style="fill:#546e7a;" />
</svg>
