<svg id="icon-joystick" viewBox="0 0 20 20" xmlns="http://www.w3.org/2000/svg">
<path fill-rule="evenodd" clip-rule="evenodd" d="M12 0H6V1H10.1138H12C12.3569 1 12.6414 1.10974 12.8143 1.23938C12.8597 1.27344 12.8942 1.30566 12.9202 1.33521C12.9928 1.4176 13 1.47864 13 1.5C13 1.52893 12.9868 1.63123 12.8143 1.76062C12.6414 1.89026 12.3569 2 12 2H10.1138H10C9.44769 2 9 2.44775 9 3V6H4C1.79083 6 0 7.79089 0 10V16C0 18.2091 1.79083 20 4 20H6C7 20 7.3493 19.1113 7 18.5C6.78339 18.1208 6 18 6 18H5C3.69379 18 2.58252 17.1652 2.17072 16H17.8293C17.4175 17.1652 16.3062 18 15 18H14C14 18 13.2166 18.1208 13 18.5C12.6507 19.1113 13 20 14 20H16C18.2092 20 20 18.2091 20 16V10C20 7.79089 18.2092 6 16 6H10V4V3H11H12C13.1046 3 14 2.32837 14 1.5C14 0.671631 13.1046 0 12 0ZM18 11V12H16V10H17.994C18 10.2894 18 10.6207 18 11ZM14 10V8H15C15.3793 8 15.7106 8 16 8.0061V10H14ZM14 10H12V12H14V14H16V12H14V10ZM5 8H6V10H8V12H6V14H4V12H2V11C2 10.6207 2 10.2894 2.00604 10H4V8.0061C4.28943 8 4.62073 8 5 8Z" style="fill:#546e7a;" />
</svg>
