<svg id="icon-gear" viewBox="0 0 20 20" xmlns="http://www.w3.org/2000/svg">
<path fill-rule="evenodd" clip-rule="evenodd" d="M8 1C8 0.447754 8.44769 0 9 0H11C11.5523 0 12 0.447754 12 1V3.28992C12.4655 3.42847 12.9108 3.61414 13.3302 3.84143L14.9498 2.22192C15.3403 1.8313 15.9734 1.8313 16.364 2.22192L17.7782 3.63611C18.1687 4.02661 18.1687 4.65979 17.7782 5.05029L16.1586 6.6698C16.3859 7.08923 16.5716 7.53442 16.7101 8H19C19.5523 8 20 8.44775 20 9V11C20 11.5522 19.5523 12 19 12H16.7101C16.6188 12.3068 16.5071 12.6046 16.3765 12.8921C16.3089 13.041 16.2362 13.1871 16.1586 13.3302L17.7782 14.9497C18.1687 15.3403 18.1687 15.9734 17.7782 16.364L16.364 17.7782C15.9734 18.1687 15.3403 18.1687 14.9498 17.7782L13.3301 16.1586C12.9107 16.3859 12.4655 16.5715 12 16.7101V19C12 19.5522 11.5523 20 11 20H9C8.44769 20 8 19.5522 8 19V16.7101C7.53448 16.5715 7.08929 16.3859 6.66986 16.1586L5.05023 17.7782C4.65973 18.1687 4.02655 18.1687 3.63605 17.7782L2.2218 16.364C1.8313 15.9735 1.8313 15.3403 2.2218 14.9497L3.84137 13.3302C3.61407 12.9108 3.42841 12.4656 3.28986 12H1C0.447693 12 0 11.5522 0 11V9C0 8.44775 0.447693 8 1 8H3.28986C3.42841 7.53442 3.61407 7.08923 3.84137 6.6698L2.2218 5.05029C1.8313 4.65979 1.8313 4.02661 2.2218 3.63611L3.63605 2.22192C4.02655 1.8313 4.65973 1.8313 5.05023 2.22192L6.6698 3.84143C7.08923 3.61414 7.53448 3.42847 8 3.28992V1ZM6.48022 6.44873C6.46973 6.45911 6.45929 6.4696 6.44891 6.4801C5.55322 7.38367 5 8.6272 5 10C5 12.7615 7.23859 15 10 15C12.7614 15 15 12.7615 15 10C15 8.6272 14.4468 7.38367 13.5511 6.4801L13.5198 6.44873C12.6162 5.5531 11.3727 5 10 5C8.62726 5 7.38379 5.5531 6.48022 6.44873Z" style="fill:#546e7a;" />
</svg>
