<?xml version="1.0" encoding="utf-8"?>
<svg viewBox="134.377 55.984 38.843 30" xmlns="http://www.w3.org/2000/svg">
  <path d="M23.2897 2.38938C28.6622 4.24779 30.4707 6.53097 30.4707 11.6814C30.4707 16.7257 27.3856 18.6372 23.3961 16.7257V7.32743C23.3961 6.21239 23.1833 5.20354 22.1727 4.93805C21.3748 4.67257 20.8961 5.41593 20.8961 6.53097V30L14.5662 27.9823V0C17.2258 0.477876 21.162 1.69912 23.2897 2.38938ZM22.0663 29.5221L35.8964 24.531C35.8964 24.531 37.7581 23.8407 38.5028 22.885C39.2475 21.9292 38.9283 20.5487 35.9496 19.5929C33.2899 18.5841 29.9388 18.2655 27.1728 18.531C24.4068 18.8496 22.4386 19.5398 22.4386 19.5398L22.0663 19.646V23.469L28.8749 21.0796C30.0452 20.6549 31.7473 20.6018 32.6516 20.8673C33.6091 21.1858 33.3963 21.7699 32.2793 22.1947L22.0663 25.8053V29.5221ZM2.91698 25.4867C6.21492 26.5487 9.56605 26.7611 12.7044 26.2832C12.9172 26.2301 13.13 26.2301 13.3427 26.177V22.885L10.2044 24C9.03412 24.4248 7.33196 24.531 6.3745 24.2124C5.41703 23.8938 5.6298 23.3097 6.74684 22.885L13.2895 20.6018V16.9381L4.24679 20.1239C4.24679 20.1239 2.0659 20.8673 0.736085 21.823C-0.646922 22.8319 -0.168189 24.6372 2.91698 25.4867Z" transform="matrix(1, 0, 0, 1, 134.376572, 55.983814)" style="fill: rgb(84, 110, 122);"/>
</svg>