<?xml version="1.0" encoding="utf-8"?>
<svg viewBox="0.102 -0.339 166 80" xmlns="http://www.w3.org/2000/svg" style="fill:#fff;">
  <path fill-rule="evenodd" clip-rule="evenodd" d="M 166.102 79.661 L 161.102 79.661 L 156.102 67.661 L 152.102 67.661 L 152.102 79.661 L 147.102 79.661 L 147.102 50.661 L 161.317 50.661 L 166.08 55.494 L 166.08 62.744 L 161.14 67.661 L 166.102 79.661 Z M 161.14 60.661 L 161.14 57.661 L 159.102 55.661 L 152.102 55.661 L 152.102 62.661 L 159.102 62.661 L 161.14 60.661 Z M 123.102 50.661 L 142.102 50.639 L 142.102 55.661 L 128.102 55.661 L 128.102 62.661 L 135.102 62.661 L 135.102 67.661 L 128.102 67.661 L 128.102 74.661 L 142.102 74.661 L 142.102 79.661 L 123.102 79.661 L 123.102 50.661 Z M 38.102 50.661 L 43.102 50.661 L 43.102 79.661 L 38.102 79.661 L 38.102 67.661 L 29.102 67.661 L 29.102 79.661 L 24.102 79.661 L 24.102 50.661 L 29.102 50.661 L 29.102 62.661 L 38.102 62.661 L 38.102 50.661 Z M 19.102 55.661 L 12.102 55.661 L 12.102 79.661 L 7.102 79.661 L 7.102 55.661 L 0.102 55.661 L 0.102 50.661 L 19.102 50.661 L 19.102 55.661 Z M 53.102 72.661 L 55.102 74.661 L 61.102 74.661 L 63.102 72.661 L 63.102 50.661 L 68.102 50.661 L 68.102 74.661 L 63.102 79.661 L 53.102 79.661 L 48.102 74.661 L 48.102 50.661 L 53.102 50.661 L 53.102 72.661 Z M 88.102 69.161 L 88.102 50.661 L 93.102 50.661 L 93.102 79.661 L 87.865 79.661 L 78.102 61.161 L 78.102 79.661 L 73.102 79.661 L 73.102 50.661 L 78.602 50.661 L 88.102 69.161 Z M 118.102 55.661 L 118.102 74.661 L 113.102 79.661 L 98.102 79.661 L 98.102 50.661 L 113.102 50.661 L 118.102 55.661 Z M 103.102 55.661 L 103.102 74.661 L 111.102 74.661 L 113.102 72.661 L 113.102 57.661 L 111.102 55.661 L 104.102 55.661 L 103.102 55.661 Z" style="fill: rgb(207, 216, 220);"/>
  <path fill-rule="evenodd" clip-rule="evenodd" d="M 121.38 44.661 L 121.102 43.661 L 123.102 43.661 L 122.102 41.161 L 122.602 40.161 L 126.602 39.161 L 126.239 38.322 L 131.102 36.661 L 134.102 44.661 L 121.38 44.661 Z M 130.302 34.661 L 125.602 35.791 L 125.36 35.007 L 122.501 35.791 C 122.281 35.276 122.102 34.661 122.102 34.661 L 120.102 34.661 L 119.102 32.661 L 114.102 32.661 L 114.102 31.938 C 114.102 31.938 112.232 31.535 110.627 31.535 C 109 31.535 107.102 31.938 107.102 31.938 L 107.102 32.661 L 106.102 32.661 L 104.074 38.053 L 104.074 25.599 C 105.855 25.174 107.351 24.815 108.252 24.614 C 108.934 24.457 109.264 23.315 109.44 21.523 C 109.615 19.619 109.286 19.529 107.592 19.417 C 106.647 19.35 105.437 19.283 104.096 19.238 L 104.096 -0.317 L 128.102 -0.317 L 133.102 4.661 L 133.102 23.661 L 128.102 28.661 L 130.302 34.661 Z M 126.102 6.661 L 111.102 6.661 L 111.102 21.661 L 126.102 21.661 L 126.102 6.661 Z M 92.706 44.392 C 92.706 43.989 92.706 43.519 92.706 42.869 C 92.706 41.794 92.2 41.772 91.012 41.324 C 89.341 40.674 86.703 40.136 86.703 40.136 C 86.703 40.136 87.428 31.58 87.494 30.998 C 87.582 30.258 88.022 29.967 88.923 29.542 C 89.407 29.318 92.2 28.578 95.542 27.727 L 100.102 44.661 L 92.64 44.661 C 92.706 44.527 92.706 44.415 92.706 44.392 Z M 87.494 17.67 C 87.45 17.02 87.516 11.645 87.01 10.592 C 86.527 9.539 85.405 8.24 85.405 8.24 L 84.548 8.24 C 84.548 8.24 83.448 9.539 82.942 10.592 C 82.459 11.645 82.525 17.02 82.459 17.67 C 82.415 18.32 82.283 18.521 81.403 18.7 C 80.919 18.79 79.094 18.857 76.675 18.924 L 81.403 -0.339 L 88.528 -0.317 L 93.233 18.924 C 90.837 18.857 89.011 18.79 88.528 18.7 C 87.648 18.521 87.538 18.32 87.494 17.67 Z M 82.503 30.998 C 82.569 31.58 83.294 40.136 83.294 40.136 C 83.294 40.136 80.633 40.696 78.984 41.324 C 77.797 41.772 77.291 41.816 77.291 42.869 C 77.291 43.519 77.291 43.989 77.291 44.392 C 77.291 44.415 77.269 44.527 77.357 44.661 L 70.101 44.661 L 74.432 27.705 C 77.797 28.556 80.568 29.295 81.073 29.519 C 81.953 29.945 82.415 30.236 82.503 30.998 Z M 62.382 19.395 L 65.102 -0.339 L 72.602 -0.339 L 69.793 19.081 C 66.956 19.171 64.207 19.26 62.382 19.395 Z M 66.186 44.661 L 59.7 44.661 L 55.17 44.661 L 55.17 33.439 C 55.17 33.439 55.346 33.372 54.268 33.439 C 53.191 33.506 48.441 36.709 45.846 37.583 C 43.274 38.434 38.326 38.703 38.326 38.703 C 38.326 38.703 40.371 40.988 41.69 43.295 C 41.932 43.698 42.13 44.168 42.328 44.661 L 38.348 44.661 L 32.102 -0.339 L 39.602 -0.339 L 43.274 28.153 L 47.32 3.661 L 54.102 3.661 L 54.102 11.661 C 53.42 11.751 53.015 11.734 52.399 12.249 C 52.399 12.653 52.399 13.28 52.399 13.661 L 47.102 13.661 L 50.102 14.661 L 53.102 14.661 L 53.081 20.492 C 52.069 20.694 51.08 21.119 50.156 21.724 C 50.156 22.62 50.156 23.494 50.156 24.39 C 50.376 24.39 50.596 24.39 50.816 24.39 L 50.816 29.407 L 49.123 29.407 L 44.439 26.831 L 43.933 27.727 L 48.771 30.751 L 48.309 32.453 L 48.243 32.453 L 41.294 28.623 L 40.789 29.519 L 45.582 32.521 L 44.857 34.133 L 38.15 30.438 L 37.644 31.334 L 44.263 35.477 L 43.625 36.889 C 44.395 36.754 45.143 36.575 45.736 36.373 C 48.375 35.477 53.169 32.207 54.268 32.117 C 54.554 32.095 54.686 32.095 54.73 32.073 C 54.774 32.073 54.906 32.095 55.192 32.117 C 56.291 32.185 61.085 35.477 63.724 36.373 C 64.339 36.575 65.065 36.754 65.835 36.889 L 63.878 32.521 L 61.151 32.521 L 60.315 29.497 L 58.622 29.497 L 58.622 24.479 C 58.842 24.479 59.062 24.479 59.282 24.479 C 59.282 23.583 59.282 22.71 59.282 21.814 C 58.38 21.209 57.391 20.806 56.379 20.582 L 56.102 14.661 L 59.002 14.661 L 61.305 27.906 L 61.723 24.681 C 61.723 24.681 61.723 24.681 61.745 24.681 C 63.108 24.995 65.813 25.644 68.803 26.383 L 66.186 44.661 Z M 57.061 12.249 C 56.467 11.734 55.873 11.751 55.192 11.661 L 55.192 3.661 L 57.039 3.661 L 58.852 13.661 L 57.102 13.661 C 57.124 13.258 57.061 12.63 57.061 12.249 Z M 108.032 37.672 L 109.022 35.545 L 110.011 37.672 L 112.32 37.964 L 110.627 39.576 L 111.067 41.906 L 109.044 40.764 L 107.021 41.906 L 107.46 39.576 L 105.767 37.964 L 108.032 37.672 Z" style="fill: rgb(207, 216, 220);"/>
  <path fill-rule="evenodd" clip-rule="evenodd" d="M 22.602 31.661 L 17.602 28.661 L 12.602 31.661 L 13.602 25.661 L 9.102 21.661 L 15.102 20.661 L 17.602 15.161 L 20.102 20.661 L 26.102 21.661 L 21.602 25.661 L 22.602 31.661 Z" style="fill: rgb(207, 216, 220);"/>
  <path fill-rule="evenodd" clip-rule="evenodd" d="M 154.602 31.661 L 149.602 28.661 L 144.602 31.661 L 145.602 25.661 L 141.102 21.661 L 147.102 20.661 L 149.602 15.161 L 152.102 20.661 L 158.102 21.661 L 153.602 25.661 L 154.602 31.661 Z" style="fill: rgb(207, 216, 220);"/>
</svg>